<?xml version="1.0" standalone="no"?>
<!DOCTYPE svg PUBLIC "-//W3C//DTD SVG 20010904//EN"
 "http://www.w3.org/TR/2001/REC-SVG-20010904/DTD/svg10.dtd">
<svg version="1.0" xmlns="http://www.w3.org/2000/svg"
 width="612.000000pt" height="612.000000pt" viewBox="0 0 612.000000 612.000000"
 preserveAspectRatio="xMidYMid meet">

<g transform="translate(0.000000,612.000000) scale(0.100000,-0.100000)"
fill="#000000" stroke="none">
<path d="M2445 4533 c-60 -24 -114 -67 -152 -120 -62 -88 -64 -102 -61 -582
l3 -433 33 -29 c45 -40 99 -40 144 0 l33 29 5 437 5 437 33 29 32 29 929 0
c920 0 929 0 954 -20 15 -12 31 -38 37 -58 15 -56 13 -2456 -3 -2501 -7 -19
-25 -44 -40 -55 -28 -21 -33 -21 -930 -24 -618 -2 -914 0 -939 8 -24 7 -44 22
-57 44 -20 32 -21 46 -21 447 0 396 -1 415 -20 447 -39 63 -124 68 -172 10
l-28 -32 0 -426 c0 -362 2 -435 16 -481 29 -98 105 -179 206 -217 39 -15 136
-17 962 -20 589 -2 938 1 974 8 147 27 251 135 272 282 14 93 13 2459 -1 2534
-22 118 -99 214 -205 254 -54 20 -73 20 -1012 19 -855 0 -961 -2 -997 -16z"/>
<path d="M2623 3654 c-18 -9 -39 -31 -48 -51 -32 -66 -22 -81 185 -288 105
-104 190 -193 190 -197 0 -5 -321 -8 -714 -8 -700 0 -714 0 -739 -20 -14 -11
-31 -36 -37 -55 -10 -30 -9 -41 7 -73 37 -75 2 -72 788 -72 l700 0 -187 -187
c-102 -104 -191 -198 -197 -210 -38 -74 36 -165 122 -149 26 5 92 66 335 309
166 166 303 310 303 320 1 9 2 24 2 32 0 8 -1 23 -2 32 -1 20 -574 598 -613
619 -34 18 -55 17 -95 -2z"/>
</g>
</svg>
