<?xml version="1.0" standalone="no"?>
<!DOCTYPE svg PUBLIC "-//W3C//DTD SVG 20010904//EN"
 "http://www.w3.org/TR/2001/REC-SVG-20010904/DTD/svg10.dtd">
<svg version="1.0" xmlns="http://www.w3.org/2000/svg"
 width="257.000000pt" height="253.000000pt" viewBox="0 0 257.000000 253.000000"
 preserveAspectRatio="xMidYMid meet">

<g transform="translate(0.000000,253.000000) scale(0.100000,-0.100000)"
fill="#000000" stroke="none">
<path d="M1030 1935 l0 -45 295 0 295 0 0 45 0 45 -295 0 -295 0 0 -45z"/>
<path d="M860 1435 l0 -45 455 0 455 0 0 45 0 45 -455 0 -455 0 0 -45z"/>
<path d="M860 1200 l0 -50 345 0 345 0 0 50 0 50 -345 0 -345 0 0 -50z"/>
<path d="M860 965 l0 -45 245 0 245 0 0 45 0 45 -245 0 -245 0 0 -45z"/>
<path d="M1898 793 l-88 -87 -38 37 -38 37 -32 -33 -32 -33 70 -69 70 -70 122
122 122 122 -29 31 c-16 16 -31 30 -34 30 -4 0 -45 -39 -93 -87z"/>
</g>
</svg>
